<mxfile host="Electron" agent="Mozilla/5.0 (Windows NT 10.0; Win64; x64) AppleWebKit/537.36 (KHTML, like Gecko) draw.io/27.0.9 Chrome/134.0.6998.205 Electron/35.4.0 Safari/537.36" version="27.0.9">
  <diagram name="Page-1" id="eUEc7VF8CKAKvdWgvg0R">
    <mxGraphModel dx="1897" dy="259" grid="0" gridSize="10" guides="1" tooltips="1" connect="1" arrows="1" fold="1" page="0" pageScale="1" pageWidth="850" pageHeight="1100" math="0" shadow="0">
      <root>
        <mxCell id="0" />
        <mxCell id="1" parent="0" />
        <mxCell id="mFY8WBN4wWm0_BmZKr3T-1" value="User" style="swimlane;fontStyle=1;align=center;verticalAlign=top;childLayout=stackLayout;horizontal=1;startSize=26;horizontalStack=0;resizeParent=1;resizeParentMax=0;resizeLast=0;collapsible=1;marginBottom=0;whiteSpace=wrap;html=1;" parent="1" vertex="1">
          <mxGeometry x="-90" y="520" width="180" height="230" as="geometry">
            <mxRectangle x="280" y="160" width="90" height="30" as="alternateBounds" />
          </mxGeometry>
        </mxCell>
        <mxCell id="mFY8WBN4wWm0_BmZKr3T-2" value="- userId : int&lt;div&gt;- email : String&lt;/div&gt;&lt;div&gt;- name : String&lt;/div&gt;&lt;div&gt;- phone&lt;span style=&quot;background-color: transparent; color: light-dark(rgb(0, 0, 0), rgb(255, 255, 255));&quot;&gt;: String&lt;/span&gt;&lt;/div&gt;" style="text;strokeColor=none;fillColor=none;align=left;verticalAlign=top;spacingLeft=4;spacingRight=4;overflow=hidden;rotatable=0;points=[[0,0.5],[1,0.5]];portConstraint=eastwest;whiteSpace=wrap;html=1;" parent="mFY8WBN4wWm0_BmZKr3T-1" vertex="1">
          <mxGeometry y="26" width="180" height="64" as="geometry" />
        </mxCell>
        <mxCell id="mFY8WBN4wWm0_BmZKr3T-3" value="" style="line;strokeWidth=1;fillColor=none;align=left;verticalAlign=middle;spacingTop=-1;spacingLeft=3;spacingRight=3;rotatable=0;labelPosition=right;points=[];portConstraint=eastwest;strokeColor=inherit;" parent="mFY8WBN4wWm0_BmZKr3T-1" vertex="1">
          <mxGeometry y="90" width="180" height="8" as="geometry" />
        </mxCell>
        <mxCell id="mFY8WBN4wWm0_BmZKr3T-4" value="+ getUserId( ) : int&lt;div&gt;+ getEmail( ) : String&lt;/div&gt;&lt;div&gt;+ getName( ) : String&lt;/div&gt;&lt;div&gt;+getPhone( ):String&lt;/div&gt;&lt;div&gt;+setUserId(userId&amp;nbsp;: int): void&lt;/div&gt;&lt;div&gt;&lt;div&gt;+setEmail(email: String): void&lt;/div&gt;&lt;/div&gt;&lt;div&gt;&lt;div&gt;+setName(name: String): void&lt;/div&gt;&lt;/div&gt;&lt;div&gt;+setPhone(phone: String):void&lt;/div&gt;" style="text;strokeColor=none;fillColor=none;align=left;verticalAlign=top;spacingLeft=4;spacingRight=4;overflow=hidden;rotatable=0;points=[[0,0.5],[1,0.5]];portConstraint=eastwest;whiteSpace=wrap;html=1;" parent="mFY8WBN4wWm0_BmZKr3T-1" vertex="1">
          <mxGeometry y="98" width="180" height="132" as="geometry" />
        </mxCell>
        <mxCell id="mFY8WBN4wWm0_BmZKr3T-5" value="Account" style="swimlane;fontStyle=1;align=center;verticalAlign=top;childLayout=stackLayout;horizontal=1;startSize=26;horizontalStack=0;resizeParent=1;resizeParentMax=0;resizeLast=0;collapsible=1;marginBottom=0;whiteSpace=wrap;html=1;" parent="1" vertex="1">
          <mxGeometry x="260" y="460" width="230" height="510" as="geometry">
            <mxRectangle x="630" y="100" width="80" height="30" as="alternateBounds" />
          </mxGeometry>
        </mxCell>
        <mxCell id="mFY8WBN4wWm0_BmZKr3T-6" value="- username : String&amp;nbsp; &amp;nbsp; &amp;nbsp; &amp;nbsp;&lt;div&gt;- system : String&lt;/div&gt;&lt;div&gt;- created_At :&amp;nbsp;Date&lt;/div&gt;&lt;div&gt;- updateAt: Date&lt;/div&gt;&lt;div&gt;- status: String&lt;/div&gt;&lt;div&gt;&lt;div&gt;- user: User&lt;/div&gt;&lt;/div&gt;&lt;div&gt;&lt;br&gt;&lt;/div&gt;" style="text;strokeColor=none;fillColor=none;align=left;verticalAlign=top;spacingLeft=4;spacingRight=4;overflow=hidden;rotatable=0;points=[[0,0.5],[1,0.5]];portConstraint=eastwest;whiteSpace=wrap;html=1;" parent="mFY8WBN4wWm0_BmZKr3T-5" vertex="1">
          <mxGeometry y="26" width="230" height="94" as="geometry" />
        </mxCell>
        <mxCell id="mFY8WBN4wWm0_BmZKr3T-7" value="" style="line;strokeWidth=1;fillColor=none;align=left;verticalAlign=middle;spacingTop=-1;spacingLeft=3;spacingRight=3;rotatable=0;labelPosition=right;points=[];portConstraint=eastwest;strokeColor=inherit;" parent="mFY8WBN4wWm0_BmZKr3T-5" vertex="1">
          <mxGeometry y="120" width="230" height="48" as="geometry" />
        </mxCell>
        <mxCell id="mFY8WBN4wWm0_BmZKr3T-8" value="&lt;div&gt;+getUsername(): String&lt;/div&gt;&lt;table&gt;&lt;tbody&gt;&lt;tr&gt;&lt;td data-col-size=&quot;sm&quot; data-end=&quot;647&quot; data-start=&quot;606&quot;&gt;&lt;code data-end=&quot;646&quot; data-start=&quot;608&quot;&gt;+setUsername(username: String): void&lt;/code&gt;&lt;/td&gt;&lt;/tr&gt;&lt;/tbody&gt;&lt;/table&gt;&lt;table&gt;&lt;tbody&gt;&lt;tr&gt;&lt;td data-col-size=&quot;sm&quot; data-end=&quot;667&quot; data-start=&quot;647&quot;&gt;&lt;/td&gt;&lt;/tr&gt;&lt;/tbody&gt;&lt;/table&gt;&lt;table&gt;&lt;tbody&gt;&lt;tr&gt;&lt;td data-col-size=&quot;sm&quot; data-end=&quot;701&quot; data-start=&quot;668&quot;&gt;&lt;code data-end=&quot;692&quot; data-start=&quot;670&quot;&gt;+getSystem(): String&lt;/code&gt;&lt;/td&gt;&lt;/tr&gt;&lt;/tbody&gt;&lt;/table&gt;&lt;table&gt;&lt;tbody&gt;&lt;tr&gt;&lt;td data-col-size=&quot;sm&quot; data-end=&quot;733&quot; data-start=&quot;701&quot;&gt;&lt;/td&gt;&lt;/tr&gt;&lt;/tbody&gt;&lt;/table&gt;&lt;table&gt;&lt;tbody&gt;&lt;tr&gt;&lt;td data-col-size=&quot;sm&quot; data-end=&quot;775&quot; data-start=&quot;734&quot;&gt;&lt;code data-end=&quot;770&quot; data-start=&quot;736&quot;&gt;+setSystem(system: String): void&lt;/code&gt;&lt;/td&gt;&lt;/tr&gt;&lt;/tbody&gt;&lt;/table&gt;&lt;table&gt;&lt;tbody&gt;&lt;tr&gt;&lt;td data-col-size=&quot;sm&quot; data-end=&quot;795&quot; data-start=&quot;775&quot;&gt;&lt;/td&gt;&lt;/tr&gt;&lt;/tbody&gt;&lt;/table&gt;&lt;table&gt;&lt;tbody&gt;&lt;tr&gt;&lt;td data-col-size=&quot;sm&quot; data-end=&quot;829&quot; data-start=&quot;796&quot;&gt;&lt;code data-end=&quot;821&quot; data-start=&quot;798&quot;&gt;+getCreatedAt(): Date&lt;/code&gt;&lt;/td&gt;&lt;/tr&gt;&lt;/tbody&gt;&lt;/table&gt;&lt;table&gt;&lt;tbody&gt;&lt;tr&gt;&lt;td data-col-size=&quot;sm&quot; data-end=&quot;861&quot; data-start=&quot;829&quot;&gt;&lt;/td&gt;&lt;/tr&gt;&lt;/tbody&gt;&lt;/table&gt;&lt;table&gt;&lt;tbody&gt;&lt;tr&gt;&lt;td data-col-size=&quot;sm&quot; data-end=&quot;903&quot; data-start=&quot;862&quot;&gt;&lt;code data-end=&quot;902&quot; data-start=&quot;864&quot;&gt;+setCreatedAt(createdAt: Date): void&lt;/code&gt;&lt;/td&gt;&lt;/tr&gt;&lt;/tbody&gt;&lt;/table&gt;&lt;table&gt;&lt;tbody&gt;&lt;tr&gt;&lt;td data-col-size=&quot;sm&quot; data-end=&quot;923&quot; data-start=&quot;903&quot;&gt;&lt;/td&gt;&lt;/tr&gt;&lt;/tbody&gt;&lt;/table&gt;&lt;table&gt;&lt;tbody&gt;&lt;tr&gt;&lt;td data-col-size=&quot;sm&quot; data-end=&quot;957&quot; data-start=&quot;924&quot;&gt;&lt;code data-end=&quot;948&quot; data-start=&quot;926&quot;&gt;+getUpdateAt(): Date&lt;/code&gt;&lt;/td&gt;&lt;/tr&gt;&lt;/tbody&gt;&lt;/table&gt;&lt;table&gt;&lt;tbody&gt;&lt;tr&gt;&lt;td data-col-size=&quot;sm&quot; data-end=&quot;989&quot; data-start=&quot;957&quot;&gt;&lt;/td&gt;&lt;/tr&gt;&lt;/tbody&gt;&lt;/table&gt;&lt;div&gt;&lt;table&gt;&lt;tbody&gt;&lt;tr&gt;&lt;td data-col-size=&quot;sm&quot; data-end=&quot;1031&quot; data-start=&quot;990&quot;&gt;&lt;code data-end=&quot;1028&quot; data-start=&quot;992&quot;&gt;+setUpdateAt(updateAt: Date): void&lt;br&gt;+getStatus():String&lt;br&gt;+setStatus(status: String):void&lt;br&gt;&lt;table&gt;&lt;tbody&gt;&lt;tr&gt;&lt;td data-col-size=&quot;sm&quot; data-end=&quot;1117&quot; data-start=&quot;1085&quot;&gt;+isValid(): boolean&lt;br&gt;&lt;table&gt;&lt;tbody&gt;&lt;tr&gt;&lt;td data-col-size=&quot;sm&quot; data-end=&quot;1183&quot; data-start=&quot;1151&quot;&gt;&lt;/td&gt;&lt;/tr&gt;&lt;/tbody&gt;&lt;/table&gt;&lt;/td&gt;&lt;/tr&gt;&lt;/tbody&gt;&lt;/table&gt;&lt;/code&gt;&lt;/td&gt;&lt;/tr&gt;&lt;/tbody&gt;&lt;/table&gt;&lt;table&gt;&lt;tbody&gt;&lt;tr&gt;&lt;td data-col-size=&quot;sm&quot; data-end=&quot;1051&quot; data-start=&quot;1031&quot;&gt;&lt;/td&gt;&lt;/tr&gt;&lt;/tbody&gt;&lt;/table&gt;+ getUser(): User&lt;/div&gt;&lt;div&gt;&lt;div&gt;+ setUser(user: User): void&lt;/div&gt;&lt;/div&gt;&lt;div&gt;&lt;br&gt;&lt;/div&gt;" style="text;strokeColor=none;fillColor=none;align=left;verticalAlign=top;spacingLeft=4;spacingRight=4;overflow=hidden;rotatable=0;points=[[0,0.5],[1,0.5]];portConstraint=eastwest;whiteSpace=wrap;html=1;" parent="mFY8WBN4wWm0_BmZKr3T-5" vertex="1">
          <mxGeometry y="168" width="230" height="342" as="geometry" />
        </mxCell>
        <mxCell id="mFY8WBN4wWm0_BmZKr3T-9" value="" style="endArrow=none;html=1;rounded=0;startArrow=diamondThin;startFill=1;jumpSize=10;" parent="1" target="mFY8WBN4wWm0_BmZKr3T-8" edge="1">
          <mxGeometry width="50" height="50" relative="1" as="geometry">
            <mxPoint x="90" y="640" as="sourcePoint" />
            <mxPoint x="140" y="590" as="targetPoint" />
          </mxGeometry>
        </mxCell>
        <mxCell id="mFY8WBN4wWm0_BmZKr3T-10" value="1" style="text;html=1;align=center;verticalAlign=middle;resizable=0;points=[];autosize=1;strokeColor=none;fillColor=none;" parent="1" vertex="1">
          <mxGeometry x="85" y="618" width="30" height="30" as="geometry" />
        </mxCell>
        <mxCell id="mFY8WBN4wWm0_BmZKr3T-11" value="*" style="text;html=1;align=center;verticalAlign=middle;resizable=0;points=[];autosize=1;strokeColor=none;fillColor=none;" parent="1" vertex="1">
          <mxGeometry x="225" y="648" width="30" height="30" as="geometry" />
        </mxCell>
        <mxCell id="mFY8WBN4wWm0_BmZKr3T-12" value="AccountService" style="swimlane;fontStyle=1;align=center;verticalAlign=top;childLayout=stackLayout;horizontal=1;startSize=26;horizontalStack=0;resizeParent=1;resizeParentMax=0;resizeLast=0;collapsible=1;marginBottom=0;whiteSpace=wrap;html=1;" parent="1" vertex="1">
          <mxGeometry x="-350" y="850" width="230" height="168" as="geometry">
            <mxRectangle x="630" y="100" width="80" height="30" as="alternateBounds" />
          </mxGeometry>
        </mxCell>
        <mxCell id="mFY8WBN4wWm0_BmZKr3T-14" value="" style="line;strokeWidth=1;fillColor=none;align=left;verticalAlign=middle;spacingTop=-1;spacingLeft=3;spacingRight=3;rotatable=0;labelPosition=right;points=[];portConstraint=eastwest;strokeColor=inherit;" parent="mFY8WBN4wWm0_BmZKr3T-12" vertex="1">
          <mxGeometry y="26" width="230" height="30" as="geometry" />
        </mxCell>
        <mxCell id="mFY8WBN4wWm0_BmZKr3T-15" value="+ createAccount(account: Account): void&#xa;+ deactivateAccount(username: String): void&#xa;+ updateAccount(account: Account): void&#xa;+ displayAccounts(): List&lt;Account&gt;&#xa;+ syncAccounts(): void&#xa;+ getAccountsByUserId(userId: int): List&lt;Account&gt;" style="text;strokeColor=none;fillColor=none;align=left;verticalAlign=top;spacingLeft=4;spacingRight=4;overflow=hidden;rotatable=0;points=[[0,0.5],[1,0.5]];portConstraint=eastwest;whiteSpace=wrap;html=1;" parent="mFY8WBN4wWm0_BmZKr3T-12" vertex="1">
          <mxGeometry y="56" width="230" height="112" as="geometry" />
        </mxCell>
        <mxCell id="mFY8WBN4wWm0_BmZKr3T-16" value="" style="endArrow=none;html=1;rounded=0;entryX=1.008;entryY=0.128;entryDx=0;entryDy=0;entryPerimeter=0;" parent="1" edge="1">
          <mxGeometry width="50" height="50" relative="1" as="geometry">
            <mxPoint x="260" y="738.5" as="sourcePoint" />
            <mxPoint x="-118.16000000000031" y="850.0039999999999" as="targetPoint" />
          </mxGeometry>
        </mxCell>
        <mxCell id="xB0won3Q7OyS_miWqOTS-1" value="UserService" style="swimlane;fontStyle=1;align=center;verticalAlign=top;childLayout=stackLayout;horizontal=1;startSize=26;horizontalStack=0;resizeParent=1;resizeParentMax=0;resizeLast=0;collapsible=1;marginBottom=0;whiteSpace=wrap;html=1;" parent="1" vertex="1">
          <mxGeometry x="-460" y="600" width="230" height="168" as="geometry">
            <mxRectangle x="630" y="100" width="80" height="30" as="alternateBounds" />
          </mxGeometry>
        </mxCell>
        <mxCell id="xB0won3Q7OyS_miWqOTS-3" value="" style="line;strokeWidth=1;fillColor=none;align=left;verticalAlign=middle;spacingTop=-1;spacingLeft=3;spacingRight=3;rotatable=0;labelPosition=right;points=[];portConstraint=eastwest;strokeColor=inherit;" parent="xB0won3Q7OyS_miWqOTS-1" vertex="1">
          <mxGeometry y="26" width="230" height="30" as="geometry" />
        </mxCell>
        <mxCell id="xB0won3Q7OyS_miWqOTS-4" value="&lt;div&gt;&lt;div&gt;+ createUser(user: User): void&lt;/div&gt;&lt;div&gt;+ getUserById(id: int): User&lt;/div&gt;&lt;div&gt;+ getUserAccounts(userId: int): List&amp;lt;Account&amp;gt;&lt;/div&gt;&lt;/div&gt;&lt;div&gt;&lt;/div&gt;" style="text;strokeColor=none;fillColor=none;align=left;verticalAlign=top;spacingLeft=4;spacingRight=4;overflow=hidden;rotatable=0;points=[[0,0.5],[1,0.5]];portConstraint=eastwest;whiteSpace=wrap;html=1;" parent="xB0won3Q7OyS_miWqOTS-1" vertex="1">
          <mxGeometry y="56" width="230" height="112" as="geometry" />
        </mxCell>
        <mxCell id="xB0won3Q7OyS_miWqOTS-5" value="" style="endArrow=none;html=1;rounded=0;entryX=0.004;entryY=0.215;entryDx=0;entryDy=0;entryPerimeter=0;" parent="1" target="mFY8WBN4wWm0_BmZKr3T-4" edge="1">
          <mxGeometry width="50" height="50" relative="1" as="geometry">
            <mxPoint x="-230" y="710" as="sourcePoint" />
            <mxPoint x="-180" y="660" as="targetPoint" />
          </mxGeometry>
        </mxCell>
      </root>
    </mxGraphModel>
  </diagram>
</mxfile>
